<svg width="40" height="40" viewBox="0 0 40 40" fill="none" xmlns="http://www.w3.org/2000/svg">
<g filter="url(#filter0_d_201_657)">
<path d="M21.1309 0.0640407C21.0056 0.107866 20.8116 0.214298 20.7051 0.295688C20.605 0.377077 18.6954 3.11927 16.4666 6.39363L12.4159 12.3413L11.2702 12.3601L10.1245 12.3726L10.1558 12.1723C10.1746 12.0596 10.2935 10.9389 10.4125 9.68051C10.5315 8.42211 10.6441 7.2764 10.6629 7.1324C10.7005 6.87571 10.7193 6.85693 11.145 6.63154C11.5707 6.40616 12.1718 5.89278 12.4222 5.52965L12.5474 5.34809L14.3568 5.53591C15.5839 5.65487 16.2287 5.69869 16.3414 5.66113C16.692 5.54218 16.7171 5.00375 16.379 4.85976C16.2976 4.82219 15.4086 4.71576 14.3943 4.61559C12.3533 4.42151 12.1968 4.42777 11.8963 4.75958C11.7961 4.86602 11.5707 5.11019 11.3892 5.30427C11.2014 5.51087 10.9321 5.72374 10.713 5.83017C10.1558 6.09938 9.96173 6.26842 9.86156 6.56267C9.79895 6.72545 9.65495 7.95255 9.49217 9.59913L9.22296 12.3726H8.92871H8.62819L8.6595 12.1347C8.67828 12.0095 8.87862 10.0499 9.09775 7.78351C9.32313 5.51087 9.536 3.60761 9.5673 3.53874C9.66121 3.36344 9.83651 3.29457 10.1746 3.29457C10.3374 3.29457 12.009 3.45109 13.8809 3.63891C16.8986 3.93943 17.3118 3.96447 17.4621 3.88934C17.7626 3.73283 17.7501 3.23823 17.4433 3.10675C17.3619 3.07545 16.26 2.95024 14.9828 2.82502C13.7119 2.69981 12.0841 2.54329 11.3641 2.46816C10.6379 2.39929 9.94294 2.36173 9.79269 2.38051C9.22296 2.46816 8.73462 2.9565 8.62193 3.56379C8.58437 3.74535 8.40907 5.39818 8.22751 7.23883L7.90195 10.5883L7.1131 10.6259C6.43694 10.6509 6.28042 10.6822 6.02373 10.8137C5.49157 11.0892 5.19105 11.6088 5.18479 12.2787C5.17853 12.5792 5.16601 12.598 4.88428 12.7796C4.72776 12.8797 4.50237 13.0863 4.38968 13.2366C3.97021 13.7876 3.98899 13.3055 4.00778 22.3334L4.02656 30.4974L4.17682 30.823C4.35838 31.2362 4.87176 31.7183 5.2787 31.881C5.58548 32 5.91104 32 18.8019 32H32.012L32.3376 31.8497C32.7257 31.6744 33.189 31.2049 33.3768 30.7917C33.5083 30.5099 33.5146 30.4098 33.5334 28.0996L33.5521 25.708H33.7838C34.3222 25.708 34.798 25.4388 34.9608 25.0381C35.0297 24.8753 35.0485 24.2868 35.0485 22.202C35.0485 19.7039 35.0422 19.5537 34.9232 19.322C34.7354 18.9526 34.4725 18.7961 33.9716 18.7711L33.5459 18.746V16.4797C33.5459 14.5764 33.5271 14.1569 33.4457 13.8752C33.333 13.4996 33.0701 13.0738 32.8259 12.886C32.6819 12.7733 32.6694 12.717 32.6694 12.2975C32.6694 11.7403 32.4816 11.2958 32.1184 10.9953C31.8555 10.7824 31.3922 10.6196 31.0291 10.6196H30.7849L31.5174 9.54904C31.9244 8.95427 32.2875 8.34698 32.3376 8.1842C32.4878 7.68334 32.325 7.08857 31.9369 6.73171C31.843 6.64406 31.0165 6.06182 30.1025 5.442C29.1884 4.82219 27.0911 3.38849 25.4382 2.26156C23.7854 1.13462 22.3517 0.170473 22.2515 0.120387C21.9948 -0.011088 21.4189 -0.0423916 21.1309 0.0640407ZM21.9072 0.984367C22.2891 1.18471 31.1605 7.2764 31.3108 7.43291C31.5863 7.72717 31.5425 7.87743 30.9352 8.77897C30.6284 9.22348 29.9647 10.2127 29.4451 10.9765L28.506 12.3664L28.1429 12.3726H27.786L28.5185 11.302C28.9192 10.7073 29.2823 10.1188 29.3324 9.98103C29.4263 9.6993 29.3888 9.48643 29.1258 8.86662C28.9818 8.52228 28.9505 8.3595 28.938 7.78351C28.9255 7.22631 28.8942 7.06979 28.7877 6.90075C28.7001 6.7505 27.9238 6.18703 26.1207 4.95993C24.7245 4.0083 23.5162 3.20066 23.4285 3.16936C23.1531 3.06293 22.8651 3.10049 22.358 3.3071C21.9322 3.4824 21.7882 3.50744 21.1997 3.51996C20.4109 3.53874 20.1855 3.62013 19.9163 4.00204C19.8098 4.14603 18.5076 6.05555 17.0176 8.24055C15.5275 10.4255 14.2754 12.2537 14.2378 12.2975C14.1877 12.3476 14.0437 12.3726 13.8371 12.3601L13.5241 12.3413L17.3369 6.73797C19.4342 3.6577 21.2123 1.08454 21.2811 1.02193C21.4314 0.902978 21.7194 0.884196 21.9072 0.984367ZM25.6261 5.72374L28.0051 7.34526L28.0427 8.02768C28.074 8.55984 28.1178 8.80401 28.2493 9.14835C28.3432 9.38626 28.4246 9.63043 28.4309 9.68051C28.4371 9.73686 28.049 10.3629 27.5669 11.0767L26.6904 12.3664L25.9078 12.3726H25.1189L25.0501 11.9532C24.9499 11.3772 24.543 10.5883 24.1172 10.125C23.6665 9.63669 23.1844 9.32365 22.5395 9.09827C21.231 8.64749 19.6659 9.01688 18.7017 10.0061C18.1633 10.557 17.7563 11.3396 17.6562 12.0158L17.6123 12.3413L16.4666 12.3601C15.5463 12.3726 15.3272 12.3601 15.3647 12.2975C15.396 12.2537 16.6106 10.4631 18.0694 8.31568L20.7239 4.42151H21.3124C21.7632 4.42151 22.0074 4.38394 22.383 4.26499C22.6522 4.17734 22.9152 4.08343 22.959 4.05212C23.0153 4.01456 23.0967 4.01456 23.1468 4.04586C23.2032 4.07717 24.3176 4.82845 25.6261 5.72374ZM22.0575 9.89964C22.5646 10.0374 22.984 10.2753 23.3659 10.6572C23.7604 11.0516 23.9983 11.4711 24.1172 11.9845L24.2049 12.3726H21.3625H18.5139L18.5577 12.1347C18.8457 10.5508 20.4923 9.49269 22.0575 9.89964ZM7.78926 11.7528C7.77047 11.8592 7.75169 12.0471 7.75169 12.1598V12.3726H6.9378H6.1239V12.1472C6.1239 11.9845 6.17399 11.878 6.30546 11.7403C6.48702 11.565 6.50581 11.5587 7.15692 11.5587H7.83308L7.78926 11.7528ZM31.4986 11.6902C31.6802 11.8279 31.8492 12.285 31.7553 12.3601C31.724 12.3851 31.2294 12.3977 30.6534 12.3851L29.6079 12.3664L29.8708 11.9657L30.1338 11.5587H30.7348C31.2482 11.5587 31.3609 11.5775 31.4986 11.6902ZM32.1497 13.5371C32.5442 13.8502 32.6068 14.0442 32.6068 14.9207V15.6908H18.7706H4.93436V14.9082C4.93436 14.351 4.95941 14.0693 5.02201 13.9503C5.13471 13.7312 5.4227 13.462 5.62304 13.3806C5.72322 13.343 10.2622 13.3243 18.8457 13.3305L31.9056 13.343L32.1497 13.5371ZM32.6068 17.6942V18.7586H30.2465C28.3557 18.7586 27.7985 18.7773 27.4792 18.8525C26.3836 19.1154 25.4445 19.9544 25.0313 21.0437C24.856 21.5133 24.7934 22.4712 24.9061 22.9595C25.1878 24.1741 26.1144 25.1633 27.3478 25.5577C27.642 25.6516 28.0302 25.6704 30.1526 25.6954L32.6068 25.7205V26.7786V27.8366H21.35C10.1433 27.8366 10.0869 27.8366 9.97425 27.9618C9.83025 28.1246 9.83025 28.4251 9.97425 28.5879C10.0869 28.7131 10.1433 28.7131 21.35 28.7131H32.6068V29.5082C32.6068 30.222 32.588 30.3346 32.4628 30.56C32.3814 30.6978 32.2123 30.8668 32.0746 30.9482L31.8242 31.0922H18.7831C4.25195 31.0922 5.49157 31.1298 5.13471 30.6665C4.97193 30.4536 4.96567 30.4098 4.94689 29.5771L4.92184 28.7131H6.24286C7.48248 28.7131 7.57013 28.7069 7.68908 28.5879C7.75795 28.519 7.8143 28.3813 7.8143 28.2749C7.8143 28.1684 7.75795 28.0307 7.68908 27.9618C7.57013 27.8429 7.48248 27.8366 6.24912 27.8366H4.93436V22.2333V16.6299H18.7706H32.6068V17.6942ZM34.0968 22.2145L34.1093 24.7689H31.0604C29.2698 24.7689 27.8924 24.7376 27.7359 24.7063C26.753 24.4746 25.9641 23.6419 25.7763 22.634C25.5259 21.2629 26.5401 19.8855 27.93 19.7039C28.1429 19.6726 29.6141 19.6538 31.1981 19.6601L34.078 19.6664L34.0968 22.2145Z" fill="#4086F4"/>
<path d="M27.8489 20.4425C27.0601 20.6867 26.4715 21.557 26.5529 22.3583C26.6531 23.3538 27.4044 24.0425 28.3748 24.0425C29.9901 24.0487 30.8102 22.2143 29.7584 20.9622C29.6708 20.8558 29.4266 20.6805 29.2137 20.5803C28.8944 20.4175 28.7567 20.3862 28.4186 20.3925C28.1932 20.3925 27.9366 20.4175 27.8489 20.4425ZM28.7504 21.3504C29.4078 21.6258 29.508 22.5462 28.9257 22.9781C28.6878 23.1597 28.1807 23.1785 27.924 23.022C27.2917 22.6213 27.3293 21.6822 27.9992 21.3817C28.3059 21.2439 28.475 21.2377 28.7504 21.3504Z" fill="#4086F4"/>
</g>
<defs>
<filter id="filter0_d_201_657" x="0" y="0" width="39.0485" height="40" filterUnits="userSpaceOnUse" color-interpolation-filters="sRGB">
<feFlood flood-opacity="0" result="BackgroundImageFix"/>
<feColorMatrix in="SourceAlpha" type="matrix" values="0 0 0 0 0 0 0 0 0 0 0 0 0 0 0 0 0 0 127 0" result="hardAlpha"/>
<feOffset dy="4"/>
<feGaussianBlur stdDeviation="2"/>
<feComposite in2="hardAlpha" operator="out"/>
<feColorMatrix type="matrix" values="0 0 0 0 0 0 0 0 0 0 0 0 0 0 0 0 0 0 0.25 0"/>
<feBlend mode="normal" in2="BackgroundImageFix" result="effect1_dropShadow_201_657"/>
<feBlend mode="normal" in="SourceGraphic" in2="effect1_dropShadow_201_657" result="shape"/>
</filter>
</defs>
</svg>
